<?xml version="1.0" encoding="UTF-8" standalone="no"?>
<!-- Created with Inkscape (http://www.inkscape.org/) -->

<svg
   width="501.98062mm"
   height="192.45444mm"
   viewBox="0 0 501.98062 192.45444"
   version="1.1"
   id="svg1"
   xml:space="preserve"
   xmlns="http://www.w3.org/2000/svg"
   xmlns:svg="http://www.w3.org/2000/svg"><defs
     id="defs1" /><g
     id="layer1"
     transform="translate(-13.144378,-12.456183)"><path
       id="path1"
       style="fill:inherit;stroke-width:0.931964"
       d="m 62.019997,12.466662 c -0.979761,0.103259 -1.934806,0.989979 -4.008436,3.402818 -3.271964,3.807211 -9.204888,11.737974 -10.579622,14.142077 -0.62041,1.08496 -1.731648,2.660917 -2.469342,3.502322 -0.82147,0.93696 -1.50045,2.009267 -1.752055,2.76678 -0.225946,0.68026 -1.117421,2.235152 -1.98113,3.455434 -2.080152,2.938923 -2.712826,4.061336 -3.205241,5.686753 -0.709511,2.342022 -1.318062,3.706444 -2.182643,4.89287 -1.270419,1.74334 -2.044818,3.44295 -2.611798,5.731495 -0.286997,1.158434 -0.856582,2.61916 -1.289613,3.307609 -1.496491,2.379169 -1.884734,3.218033 -2.16761,4.684915 -0.40006,2.07457 -0.941574,3.704725 -1.801449,5.423677 -1.167343,2.333599 -1.619295,3.902636 -2.028734,7.040078 -0.40677,3.116977 -0.676973,4.085415 -1.704451,6.113046 -0.919146,1.813842 -1.325975,3.651179 -1.593136,7.19112 -0.179412,2.377223 -0.413097,3.61805 -1.021167,5.424746 -0.627754,1.865181 -0.825316,2.949979 -0.969627,5.324178 -0.09968,1.64002 -0.243965,3.08357 -0.320702,3.20775 -0.514409,0.83232 -0.949695,4.50214 -0.938128,7.91091 0.0085,2.50093 -0.109646,4.27657 -0.352917,5.30842 -0.228482,0.96912 -0.366807,2.81818 -0.369023,4.93117 -0.002,1.88327 -0.179074,4.4889 -0.399805,5.88255 -0.409166,2.58335 -0.379188,4.2826 0.136728,7.7613 0.24827,1.67402 0.233755,2.24344 -0.09306,3.65265 -0.474524,2.04613 -0.479782,3.72915 -0.01754,5.83064 0.193902,0.88153 0.356727,2.56187 0.361506,3.73425 0.009,2.21269 0.60376,4.73196 1.376232,5.82778 0.217824,0.309 1.358562,1.0452 2.534843,1.63609 4.241269,2.13054 6.549144,4.42457 8.455324,8.40486 1.362326,2.84467 1.730296,4.47129 1.876614,8.29533 0.156073,4.079 -0.161998,5.77865 -1.952136,10.42965 -1.467154,3.81183 -2.112519,6.55198 -2.327605,9.88346 -0.143045,2.21565 -0.105523,2.57615 0.362224,3.49301 0.286867,0.56232 0.847549,1.2548 1.246304,1.53873 0.7471,0.53198 8.8646,3.39022 11.491981,4.04637 0.813719,0.20322 2.200941,0.44362 3.082472,0.53439 0.881529,0.0908 2.490379,0.39689 3.575339,0.68042 1.401037,0.36613 2.865892,0.53115 5.055012,0.5691 1.695255,0.0294 4.025378,0.22068 5.178148,0.42522 2.897484,0.51412 4.183276,0.49915 7.557995,-0.087 2.143056,-0.37224 3.348972,-0.46018 4.524559,-0.33036 2.070786,0.22866 2.608139,0.17788 5.424756,-0.51327 1.28839,-0.31616 3.413787,-0.69619 4.723209,-0.84436 1.309422,-0.14817 3.02926,-0.48403 3.821945,-0.74627 4.499586,-1.48853 9.120346,-3.28485 9.817956,-3.81694 1.12964,-0.86163 1.610848,-2.0252 1.605298,-3.88137 -0.0108,-3.43768 -0.695888,-6.5533 -2.369118,-10.77576 -2.35132,-5.93365 -2.69392,-11.20799 -1.05088,-16.17153 1.75936,-5.3149 4.558148,-8.65434 9.326876,-11.12869 3.66289,-1.90054 3.76674,-2.08071 3.97982,-6.88796 0.0842,-1.89867 0.30323,-4.25569 0.48679,-5.23754 0.26985,-1.44349 0.27719,-2.17758 0.0376,-3.83485 -0.38105,-2.63544 -0.36344,-4.10674 0.0734,-6.09264 0.45992,-2.09108 0.45443,-3.17041 -0.0298,-5.82384 -0.23549,-1.29052 -0.42217,-3.81024 -0.45457,-6.13524 -0.0328,-2.34775 -0.18527,-4.3947 -0.37692,-5.05501 -0.21234,-0.73174 -0.30774,-2.38303 -0.2799,-4.8492 0.036,-3.18752 -0.0504,-4.16843 -0.58557,-6.64385 -0.34534,-1.59735 -0.69564,-3.90921 -0.77811,-5.13735 -0.10618,-1.581255 -0.42824,-3.118041 -1.10351,-5.265481 -0.88647,-2.819158 -0.95351,-3.241847 -0.95351,-6.003521 v -2.970445 l -1.23736,-2.922475 c -0.943578,-2.228451 -1.327288,-3.525951 -1.615628,-5.463042 -0.61754,-4.148782 -1.05998,-5.709444 -2.31329,-8.163614 -0.83085,-1.626914 -1.386318,-3.173343 -1.844748,-5.133398 -0.54722,-2.339658 -0.85478,-3.111959 -1.85265,-4.654491 -0.95984,-1.48377 -1.30003,-2.312604 -1.72162,-4.192048 -0.44019,-1.962351 -0.74015,-2.66571 -1.84763,-4.334145 -1.74741,-2.63255 -2.24404,-3.642056 -2.72811,-5.543941 -0.313,-1.22972 -0.926851,-2.366684 -2.720253,-5.039978 -1.379992,-2.057055 -2.486748,-4.00027 -2.738507,-4.808399 -0.306059,-0.982423 -0.812168,-1.776268 -1.836166,-2.880244 -0.777473,-0.8382 -2.024479,-2.562424 -2.771434,-3.831615 C 75.300285,26.815175 69.526999,19.199546 66.171971,15.338635 64.475291,13.386132 63.849539,12.83631 63.050486,12.59691 62.67605,12.484725 62.346606,12.432205 62.020016,12.466624 Z M 57.781419,42.75199 h 9.301105 v 52.227717 l 5.833499,-7.594862 V 66.086722 h 8.915622 V 151.50041 H 72.530891 V 100.3182 l -5.338484,7.4295 v 66.86732 h -8.970744 v -66.8122 l -6.273751,-7.81499 v 51.49577 h -8.907386 l 0.04689,-85.396878 h 8.695132 v 21.24336 l 5.998869,7.814989 z" /><text
       xml:space="preserve"
       style="font-weight:500;font-size:75.8085px;line-height:1;font-family:'IBM Plex Mono';-inkscape-font-specification:'IBM Plex Mono, Medium';text-align:start;letter-spacing:2.45767px;writing-mode:lr-tb;direction:ltr;text-anchor:start;fill:inherit;stroke-width:2.84395"
       x="150.42961"
       y="97.875633"
       id="text1"><tspan
         id="tspan1"
         style="font-style:normal;font-variant:normal;font-weight:500;font-stretch:normal;font-family:Inter;-inkscape-font-specification:'Inter Medium';letter-spacing:5.29167px;fill:inherit;stroke-width:2.84395"
         x="150.42961"
         y="97.875633"
         dx="0">Código</tspan><tspan
         style="font-style:normal;font-variant:normal;font-weight:500;font-stretch:normal;font-family:Inter;-inkscape-font-specification:'Inter Medium';letter-spacing:1.32292px;fill:inherit;stroke-width:2.84395"
         x="150.42961"
         y="174.6078"
         id="tspan2">Obsidiana</tspan></text></g></svg>
