<?xml version="1.0" encoding="UTF-8" standalone="no"?>
<svg
   width="501.98062mm"
   height="192.45444mm"
   viewBox="0 0 501.98062 192.45444"
   version="1.1"
   id="svg1"
   xml:space="preserve"
   xmlns="http://www.w3.org/2000/svg"
   xmlns:svg="http://www.w3.org/2000/svg"><defs
     id="defs1" /><g
     id="layer1"
     transform="translate(-13.144378,-12.456183)"><path
   id="path1"
   style="stroke-width:0.931964"
   d="m 62.019997,12.466662 c -0.979761,0.103259 -1.934806,0.989979 -4.008436,3.402818 -3.271964,3.807211 -9.204888,11.737974 -10.579622,14.142077 -0.62041,1.08496 -1.731648,2.660917 -2.469342,3.502322 -0.82147,0.93696 -1.50045,2.009267 -1.752055,2.76678 -0.225946,0.68026 -1.117421,2.235152 -1.98113,3.455434 -2.080152,2.938923 -2.712826,4.061336 -3.205241,5.686753 -0.709511,2.342022 -1.318062,3.706444 -2.182643,4.89287 -1.270419,1.74334 -2.044818,3.44295 -2.611798,5.731495 -0.286997,1.158434 -0.856582,2.61916 -1.289613,3.307609 -1.496491,2.379169 -1.884734,3.218033 -2.16761,4.684915 -0.40006,2.07457 -0.941574,3.704725 -1.801449,5.423677 -1.167343,2.333599 -1.619295,3.902636 -2.028734,7.040078 -0.40677,3.116977 -0.676973,4.085415 -1.704451,6.113046 -0.919146,1.813842 -1.325975,3.651179 -1.593136,7.19112 -0.179412,2.377223 -0.413097,3.61805 -1.021167,5.424746 -0.627754,1.865181 -0.825316,2.949979 -0.969627,5.324178 -0.09968,1.64002 -0.243965,3.08357 -0.320702,3.20775 -0.514409,0.83232 -0.949695,4.50214 -0.938128,7.91091 0.0085,2.50093 -0.109646,4.27657 -0.352917,5.30842 -0.228482,0.96912 -0.366807,2.81818 -0.369023,4.93117 -0.002,1.88327 -0.179074,4.4889 -0.399805,5.88255 -0.409166,2.58335 -0.379188,4.2826 0.136728,7.7613 0.24827,1.67402 0.233755,2.24344 -0.09306,3.65265 -0.474524,2.04613 -0.479782,3.72915 -0.01754,5.83064 0.193902,0.88153 0.356727,2.56187 0.361506,3.73425 0.009,2.21269 0.60376,4.73196 1.376232,5.82778 0.217824,0.309 1.358562,1.0452 2.534843,1.63609 4.241269,2.13054 6.549144,4.42457 8.455324,8.40486 1.362326,2.84467 1.730296,4.47129 1.876614,8.29533 0.156073,4.079 -0.161998,5.77865 -1.952136,10.42965 -1.467154,3.81183 -2.112519,6.55198 -2.327605,9.88346 -0.143045,2.21565 -0.105523,2.57615 0.362224,3.49301 0.286867,0.56232 0.847549,1.2548 1.246304,1.53873 0.7471,0.53198 8.8646,3.39022 11.491981,4.04637 0.813719,0.20322 2.200941,0.44362 3.082472,0.53439 0.881529,0.0908 2.490379,0.39689 3.575339,0.68042 1.401037,0.36613 2.865892,0.53115 5.055012,0.5691 1.695255,0.0294 4.025378,0.22068 5.178148,0.42522 2.897484,0.51412 4.183276,0.49915 7.557995,-0.087 2.143056,-0.37224 3.348972,-0.46018 4.524559,-0.33036 2.070786,0.22866 2.608139,0.17788 5.424756,-0.51327 1.28839,-0.31616 3.413787,-0.69619 4.723209,-0.84436 1.309422,-0.14817 3.02926,-0.48403 3.821945,-0.74627 4.499586,-1.48853 9.120346,-3.28485 9.817956,-3.81694 1.12964,-0.86163 1.610848,-2.0252 1.605298,-3.88137 -0.0108,-3.43768 -0.695888,-6.5533 -2.369118,-10.77576 -2.35132,-5.93365 -2.69392,-11.20799 -1.05088,-16.17153 1.75936,-5.3149 4.558148,-8.65434 9.326876,-11.12869 3.66289,-1.90054 3.76674,-2.08071 3.97982,-6.88796 0.0842,-1.89867 0.30323,-4.25569 0.48679,-5.23754 0.26985,-1.44349 0.27719,-2.17758 0.0376,-3.83485 -0.38105,-2.63544 -0.36344,-4.10674 0.0734,-6.09264 0.45992,-2.09108 0.45443,-3.17041 -0.0298,-5.82384 -0.23549,-1.29052 -0.42217,-3.81024 -0.45457,-6.13524 -0.0328,-2.34775 -0.18527,-4.3947 -0.37692,-5.05501 -0.21234,-0.73174 -0.30774,-2.38303 -0.2799,-4.8492 0.036,-3.18752 -0.0504,-4.16843 -0.58557,-6.64385 -0.34534,-1.59735 -0.69564,-3.90921 -0.77811,-5.13735 -0.10618,-1.581255 -0.42824,-3.118041 -1.10351,-5.265481 -0.88647,-2.819158 -0.95351,-3.241847 -0.95351,-6.003521 v -2.970445 l -1.23736,-2.922475 c -0.943578,-2.228451 -1.327288,-3.525951 -1.615628,-5.463042 -0.61754,-4.148782 -1.05998,-5.709444 -2.31329,-8.163614 -0.83085,-1.626914 -1.386318,-3.173343 -1.844748,-5.133398 -0.54722,-2.339658 -0.85478,-3.111959 -1.85265,-4.654491 -0.95984,-1.48377 -1.30003,-2.312604 -1.72162,-4.192048 -0.44019,-1.962351 -0.74015,-2.66571 -1.84763,-4.334145 -1.74741,-2.63255 -2.24404,-3.642056 -2.72811,-5.543941 -0.313,-1.22972 -0.926851,-2.366684 -2.720253,-5.039978 -1.379992,-2.057055 -2.486748,-4.00027 -2.738507,-4.808399 -0.306059,-0.982423 -0.812168,-1.776268 -1.836166,-2.880244 -0.777473,-0.8382 -2.024479,-2.562424 -2.771434,-3.831615 C 75.300285,26.815175 69.526999,19.199546 66.171971,15.338635 64.475291,13.386132 63.849539,12.83631 63.050486,12.59691 62.67605,12.484725 62.346606,12.432205 62.020016,12.466624 Z M 57.781419,42.75199 h 9.301105 v 52.227717 l 5.833499,-7.594862 V 66.086722 h 8.915622 V 151.50041 H 72.530891 V 100.3182 l -5.338484,7.4295 v 66.86732 h -8.970744 v -66.8122 l -6.273751,-7.81499 v 51.49577 h -8.907386 l 0.04689,-85.396878 h 8.695132 v 21.24336 l 5.998869,7.814989 z" />
    <path
   fill="currentColor"
   d="m 150.42961,97.875633 h -1e-5 v -10e-6 h 1e-5 z m 0,76.732167 h -1e-5 v -1e-5 h 1e-5 z"
   id="path2" />
    <path
   d="m 179.15393,98.764014 q -7.58826,0 -13.39975,-3.590539 -5.81149,-3.59054 -9.06889,-9.994285 -3.25739,-6.403746 -3.25739,-14.843364 0,-8.51365 3.25739,-14.917396 3.2574,-6.440761 9.06889,-9.994285 5.81149,-3.590539 13.39975,-3.590539 4.51593,0 8.4026,1.369587 3.92368,1.332571 6.996,3.84965 3.10933,2.51708 5.10819,6.070603 1.99886,3.553524 2.73917,7.958412 h -8.36558 q -0.59226,-2.813206 -1.92483,-4.997142 -1.33257,-2.183937 -3.2574,-3.701587 -1.92482,-1.517651 -4.36787,-2.257968 -2.44305,-0.777334 -5.25625,-0.777334 -5.44133,0 -9.36502,2.628127 -3.92368,2.628127 -6.0706,7.366158 -2.1099,4.701016 -2.1099,10.993714 0,6.255682 2.1099,10.956697 2.14692,4.701016 6.0706,7.329143 3.92369,2.628126 9.36502,2.628126 2.8132,0 5.21924,-0.740317 2.44304,-0.777333 4.36787,-2.257968 1.92482,-1.517651 3.2574,-3.701587 1.33257,-2.183936 1.99885,-4.960127 h 8.32857 q -0.7033,4.367873 -2.73917,7.921397 -1.99886,3.553523 -5.10819,6.070602 -3.07232,2.517079 -6.996,3.849651 -3.88667,1.332571 -8.4026,1.332571 z m 52.63497,0 q -5.5894,0 -9.80921,-2.591111 -4.21981,-2.591111 -6.58882,-7.181079 -2.332,-4.589968 -2.332,-10.586538 0,-6.070603 2.332,-10.660571 2.36901,-4.626984 6.58882,-7.218095 4.21981,-2.628127 9.80921,-2.628127 5.58939,0 9.77219,2.628127 4.21981,2.591111 6.55181,7.218095 2.36901,4.589968 2.36901,10.660571 0,5.99657 -2.36901,10.586538 -2.332,4.589968 -6.55181,7.181079 -4.1828,2.591111 -9.77219,2.591111 z m 0,-6.736888 q 3.33143,0 5.73746,-1.665714 2.44304,-1.70273 3.7386,-4.775048 1.33257,-3.072317 1.33257,-7.181078 0,-4.21981 -1.33257,-7.292127 -1.29556,-3.072317 -3.7386,-4.775047 -2.40603,-1.70273 -5.73746,-1.70273 -3.33143,0 -5.77448,1.70273 -2.40603,1.665714 -3.7386,4.775047 -1.29556,3.072317 -1.29556,7.292127 0,4.145777 1.29556,7.218094 1.33257,3.035302 3.7386,4.738032 2.40603,1.665714 5.77448,1.665714 z m -3.29441,-38.200378 5.58939,-11.215809 h 8.32857 l -7.88438,11.215809 z M 277.724,98.652967 q -5.07118,0 -8.92083,-2.554096 -3.81263,-2.59111 -5.92254,-7.144062 -2.1099,-4.589968 -2.1099,-10.623555 0,-6.033587 2.1099,-10.586539 2.14692,-4.589968 5.95956,-7.144063 3.81263,-2.591111 8.84679,-2.591111 2.5541,0 4.81206,0.740317 2.25797,0.703302 4.07175,2.109905 1.85079,1.406603 3.10933,3.590539 h 0.074 V 42.721987 h 7.81035 v 55.153646 h -7.66228 v -5.959555 h -0.074 q -1.33258,2.257968 -3.18337,3.775619 -1.85079,1.480635 -4.10876,2.220952 -2.25797,0.740318 -4.81206,0.740318 z m 1.59168,-6.736889 q 3.33143,0 5.77447,-1.665714 2.48007,-1.70273 3.81264,-4.775047 1.36959,-3.072318 1.36959,-7.144063 0,-4.145778 -1.36959,-7.181079 -1.33257,-3.072317 -3.81264,-4.738031 -2.44304,-1.70273 -5.77447,-1.70273 -3.14635,0 -5.55238,1.554666 -2.36902,1.554667 -3.7386,4.589968 -1.33258,3.035301 -1.33258,7.477206 0,4.404888 1.33258,7.44019 1.36958,2.998285 3.7386,4.589968 2.40603,1.554666 5.55238,1.554666 z m 32.35027,5.959555 V 58.786874 h 7.81035 v 39.088759 z m 3.88667,-45.825647 q -2.07289,0 -3.51651,-1.369587 -1.4066,-1.406603 -1.4066,-3.40546 0,-2.035873 1.4066,-3.40546 1.44362,-1.406603 3.51651,-1.406603 2.07289,0 3.51651,1.406603 1.44361,1.369587 1.44361,3.40546 0,1.998857 -1.44361,3.40546 -1.44362,1.369587 -3.51651,1.369587 z m 35.08944,61.816504 q -4.81207,0 -8.47664,-1.44362 -3.62755,-1.4066 -5.84851,-4.14578 -2.22095,-2.70216 -2.73917,-6.51479 h 7.81035 q 0.51822,1.88781 1.77676,3.14635 1.29556,1.29555 3.18337,1.92482 1.92482,0.66629 4.29384,0.66629 4.73803,0 7.40317,-2.5541 2.66514,-2.55409 2.66514,-7.292122 v -5.922539 h -0.037 q -1.33257,2.257968 -3.18337,3.738603 -1.81378,1.480634 -4.07174,2.220952 -2.22096,0.703301 -4.81207,0.703301 -5.07117,0 -8.92082,-2.554095 -3.81264,-2.591111 -5.92254,-7.107047 -2.10991,-4.552952 -2.10991,-10.512507 0,-5.959555 2.10991,-10.512507 2.14692,-4.589968 5.95955,-7.144063 3.81264,-2.554095 8.8468,-2.554095 2.55409,0 4.81206,0.703302 2.29498,0.703301 4.14578,2.220952 1.88781,1.480635 3.18336,3.812634 h 0.037 v -5.959555 h 7.6993 v 38.570537 q 0,5.922539 -2.40603,9.550099 -2.36902,3.62755 -6.44076,5.29327 -4.03473,1.66571 -8.95784,1.66571 z m -0.44419,-22.172507 q 3.33142,0 5.77447,-1.665714 2.48006,-1.665714 3.81264,-4.701016 1.36958,-3.072317 1.36958,-7.144063 0,-4.108761 -1.36958,-7.144063 -1.33258,-3.035301 -3.81264,-4.701015 -2.44305,-1.665714 -5.77447,-1.665714 -3.14635,0 -5.55238,1.554666 -2.36902,1.517651 -3.73861,4.552952 -1.33257,2.998286 -1.33257,7.403174 0,4.367873 1.33257,7.403174 1.36959,2.998286 3.73861,4.552952 2.40603,1.554667 5.55238,1.554667 z m 49.15547,7.070031 q -5.58939,0 -9.8092,-2.591111 -4.21981,-2.591111 -6.58883,-7.181079 -2.332,-4.589968 -2.332,-10.586538 0,-6.070603 2.332,-10.660571 2.36902,-4.626984 6.58883,-7.218095 4.21981,-2.628127 9.8092,-2.628127 5.5894,0 9.77219,2.628127 4.21981,2.591111 6.55181,7.218095 2.36902,4.589968 2.36902,10.660571 0,5.99657 -2.36902,10.586538 -2.332,4.589968 -6.55181,7.181079 -4.18279,2.591111 -9.77219,2.591111 z m 0,-6.736888 q 3.33143,0 5.73746,-1.665714 2.44305,-1.70273 3.73861,-4.775048 1.33257,-3.072317 1.33257,-7.181078 0,-4.21981 -1.33257,-7.292127 -1.29556,-3.072317 -3.73861,-4.775047 -2.40603,-1.70273 -5.73746,-1.70273 -3.33143,0 -5.77447,1.70273 -2.40603,1.665714 -3.73861,4.775047 -1.29555,3.072317 -1.29555,7.292127 0,4.145777 1.29555,7.218094 1.33258,3.035302 3.73861,4.738032 2.40603,1.665714 5.77447,1.665714 z"
   id="text2"
   style="font-weight:500;font-size:75.8085px;font-family:Inter;letter-spacing:5.29167px"
   aria-label="Código" />
    <path
   d="m 178.78377,175.49618 q -7.32914,0 -13.0666,-3.59054 -5.73746,-3.59053 -9.03188,-9.99428 -3.25739,-6.44076 -3.25739,-14.84336 0,-8.47664 3.25739,-14.88038 3.29442,-6.44077 9.03188,-10.0313 5.73746,-3.59054 13.0666,-3.59054 7.36616,0 13.0666,3.59054 5.73746,3.59053 9.03187,10.0313 3.29441,6.40374 3.29441,14.88038 0,8.4026 -3.29441,14.84336 -3.29441,6.40375 -9.03187,9.99428 -5.70044,3.59054 -13.0666,3.59054 z m 0,-7.51422 q 4.77505,0 8.66171,-2.40603 3.88667,-2.44305 6.18165,-7.10705 2.29499,-4.70101 2.29499,-11.40088 0,-6.73689 -2.29499,-11.43791 -2.29498,-4.70101 -6.18165,-7.10705 -3.88666,-2.44304 -8.66171,-2.44304 -4.73803,0 -8.6247,2.44304 -3.88667,2.40604 -6.18165,7.10705 -2.29498,4.70102 -2.29498,11.43791 0,6.69987 2.29498,11.40088 2.29498,4.664 6.18165,7.10705 3.88667,2.40603 8.6247,2.40603 z m 53.95949,7.40318 q -2.51708,0 -4.81206,-0.74032 -2.25797,-0.74032 -4.14578,-2.22095 -1.8508,-1.51765 -3.14635,-3.77562 h -0.074 v 5.95955 h -7.66229 v -55.15364 h 7.81035 v 21.72831 h 0.074 q 1.25854,-2.18393 3.07232,-3.59054 1.85079,-1.4066 4.10876,-2.1099 2.29499,-0.74032 4.81206,-0.74032 5.07118,0 8.8468,2.59111 3.81263,2.5541 5.92254,7.14406 2.14692,4.55296 2.14692,10.58654 0,6.03359 -2.10991,10.62356 -2.1099,4.55295 -5.92254,7.14406 -3.81263,2.5541 -8.92082,2.5541 z m -1.59168,-6.73689 q 3.18336,0 5.55238,-1.55467 2.36901,-1.59168 3.70158,-4.58997 1.36959,-3.0353 1.36959,-7.44019 0,-4.4419 -1.36959,-7.4772 -1.33257,-3.0353 -3.70158,-4.58997 -2.36902,-1.55467 -5.55238,-1.55467 -3.33143,0 -5.8115,1.70273 -2.44304,1.66572 -3.81263,4.73804 -1.33257,3.0353 -1.33257,7.18107 0,4.07175 1.33257,7.14407 1.36959,3.07231 3.81263,4.77504 2.48007,1.66572 5.8115,1.66572 z m 41.22603,6.88495 q -4.47892,0 -8.06946,-1.44362 -3.59054,-1.44362 -5.77448,-4.29384 -2.18394,-2.85022 -2.48006,-7.07003 h 7.6993 q 0.33314,3.14635 2.48006,4.88609 2.18394,1.70273 5.99657,1.70273 3.7386,0 5.88553,-1.51765 2.14692,-1.51765 2.14692,-3.84965 0,-1.99885 -1.55467,-3.18336 -1.51765,-1.22153 -4.07175,-1.77676 l -6.47777,-1.44362 q -5.51537,-1.22153 -8.36559,-4.03473 -2.85022,-2.81321 -2.85022,-7.14407 0,-3.47949 1.85079,-6.10761 1.88781,-2.62813 5.25625,-4.10877 3.36845,-1.48063 7.84737,-1.48063 4.40489,0 7.81035,1.55467 3.44247,1.55466 5.40431,4.40488 1.99886,2.85023 2.10991,6.81092 h -7.47721 q -0.037,-2.85022 -2.14692,-4.70101 -2.1099,-1.88781 -5.58939,-1.88781 -3.33143,0 -5.29327,1.55467 -1.96184,1.55466 -1.96184,3.81263 0,1.99886 1.48063,3.22038 1.51765,1.22153 4.14578,1.81378 l 6.66286,1.48063 q 5.73746,1.25854 8.4026,3.88667 2.70216,2.62813 2.70216,6.88495 0,3.73861 -2.07289,6.44076 -2.03588,2.66515 -5.5894,4.14578 -3.55352,1.44362 -8.10647,1.44362 z m 23.97662,-0.9254 v -39.08876 h 7.81035 v 39.08876 z m 3.88667,-45.82564 q -2.07289,0 -3.51651,-1.36959 -1.4066,-1.4066 -1.4066,-3.40546 0,-2.03587 1.4066,-3.40546 1.44362,-1.4066 3.51651,-1.4066 2.07288,0 3.5165,1.4066 1.44362,1.36959 1.44362,3.40546 0,1.99886 -1.44362,3.40546 -1.44362,1.36959 -3.5165,1.36959 z m 29.08483,46.60298 q -5.07118,0 -8.92083,-2.5541 -3.81263,-2.59111 -5.92254,-7.14406 -2.1099,-4.58997 -2.1099,-10.62356 0,-6.03358 2.1099,-10.58654 2.14692,-4.58996 5.95956,-7.14406 3.81263,-2.59111 8.84679,-2.59111 2.5541,0 4.81206,0.74032 2.25797,0.7033 4.07175,2.1099 1.85079,1.40661 3.10933,3.59054 h 0.074 v -21.72831 h 7.81035 v 55.15364 h -7.66228 v -5.95955 h -0.074 q -1.33257,2.25797 -3.18337,3.77562 -1.85079,1.48063 -4.10876,2.22095 -2.25797,0.74032 -4.81206,0.74032 z m 1.59168,-6.73689 q 3.33143,0 5.77448,-1.66572 2.48006,-1.70273 3.81263,-4.77504 1.36959,-3.07232 1.36959,-7.14407 0,-4.14577 -1.36959,-7.18107 -1.33257,-3.07232 -3.81263,-4.73804 -2.44305,-1.70273 -5.77448,-1.70273 -3.14635,0 -5.55238,1.55467 -2.36902,1.55467 -3.7386,4.58997 -1.33258,3.0353 -1.33258,7.4772 0,4.40489 1.33258,7.44019 1.36958,2.99829 3.7386,4.58997 2.40603,1.55467 5.55238,1.55467 z m 28.38152,5.95955 v -39.08876 h 7.81035 v 39.08876 z m 3.88667,-45.82564 q -2.07289,0 -3.51651,-1.36959 -1.4066,-1.4066 -1.4066,-3.40546 0,-2.03587 1.4066,-3.40546 1.44362,-1.4066 3.51651,-1.4066 2.07289,0 3.51651,1.4066 1.44361,1.36959 1.44361,3.40546 0,1.99886 -1.44361,3.40546 -1.44362,1.36959 -3.51651,1.36959 z m 25.97548,46.45491 q -3.88667,0 -6.95898,-1.33257 -3.0353,-1.33257 -4.81207,-3.9607 -1.77676,-2.62812 -1.77676,-6.51479 0,-3.33143 1.25854,-5.47835 1.29556,-2.14692 3.47949,-3.40546 2.18394,-1.25854 4.96013,-1.88781 2.77619,-0.66628 5.73746,-0.99943 3.70159,-0.4812 5.81149,-0.74031 2.14692,-0.29613 3.0353,-0.88838 0.9254,-0.62927 0.9254,-2.03588 v -0.33314 q 0,-1.88781 -0.9254,-3.33143 -0.92539,-1.48063 -2.70216,-2.332 -1.77676,-0.85136 -4.25682,-0.85136 -2.48006,0 -4.40489,0.81435 -1.88781,0.81434 -3.0353,2.25796 -1.11048,1.40661 -1.25854,3.22038 h -7.66229 q 0.18508,-3.7386 2.25797,-6.58882 2.07289,-2.85022 5.70045,-4.47892 3.62755,-1.6287 8.51365,-1.6287 3.59054,0 6.47777,0.9254 2.88724,0.92539 4.8861,2.66514 2.03587,1.70273 3.07232,4.10876 1.07346,2.40603 1.07346,5.3673 v 26.79949 h -7.6993 v -5.55238 h -0.14807 q -0.81435,1.59169 -2.22095,2.99829 -1.4066,1.4066 -3.70159,2.29498 -2.25797,0.88838 -5.62641,0.88838 z m 1.59168,-6.29269 q 3.44248,0 5.66343,-1.22153 2.25797,-1.25854 3.33143,-3.29441 1.11048,-2.03587 1.11048,-4.44191 v -4.58996 q -0.40718,0.33314 -1.33258,0.62927 -0.88838,0.25911 -2.18393,0.51822 -1.29556,0.22209 -2.81321,0.4812 -1.51765,0.25912 -3.0353,0.4442 -2.14692,0.29612 -3.99771,0.99942 -1.8508,0.66629 -2.99829,1.88781 -1.11048,1.22153 -1.11048,3.22038 0,1.66572 0.88839,2.88724 0.88838,1.18451 2.55409,1.8508 1.66572,0.62927 3.92368,0.62927 z m 35.74768,-16.84223 v 22.50565 h -7.81035 v -39.08876 h 7.66229 v 9.69816 h -1.81378 q 1.92482,-5.25625 5.33028,-7.84736 3.44248,-2.62813 8.29156,-2.62813 4.03473,0 7.21809,1.77676 3.22038,1.73975 5.07118,5.18222 1.85079,3.44248 1.85079,8.55067 v 24.35644 h -7.81035 v -23.39403 q 0,-4.70101 -2.25797,-7.07003 -2.22095,-2.40603 -6.29269,-2.40603 -2.66515,0 -4.81207,1.07346 -2.1099,1.07346 -3.36844,3.36845 -1.25854,2.29498 -1.25854,5.92253 z m 47.85186,23.13492 q -3.88666,0 -6.95898,-1.33257 -3.0353,-1.33257 -4.81206,-3.9607 -1.77676,-2.62812 -1.77676,-6.51479 0,-3.33143 1.25853,-5.47835 1.29556,-2.14692 3.4795,-3.40546 2.18393,-1.25854 4.96012,-1.88781 2.77619,-0.66628 5.73746,-0.99943 3.70159,-0.4812 5.81149,-0.74031 2.14693,-0.29613 3.03531,-0.88838 0.92539,-0.62927 0.92539,-2.03588 v -0.33314 q 0,-1.88781 -0.92539,-3.33143 -0.9254,-1.48063 -2.70216,-2.332 -1.77676,-0.85136 -4.25683,-0.85136 -2.48006,0 -4.40489,0.81435 -1.88781,0.81434 -3.0353,2.25796 -1.11047,1.40661 -1.25854,3.22038 h -7.66228 q 0.18508,-3.7386 2.25797,-6.58882 2.07288,-2.85022 5.70044,-4.47892 3.62756,-1.6287 8.51365,-1.6287 3.59054,0 6.47778,0.9254 2.88724,0.92539 4.88609,2.66514 2.03588,1.70273 3.07232,4.10876 1.07346,2.40603 1.07346,5.3673 v 26.79949 h -7.6993 v -5.55238 h -0.14806 q -0.81435,1.59169 -2.22096,2.99829 -1.4066,1.4066 -3.70158,2.29498 -2.25797,0.88838 -5.62642,0.88838 z m 1.59169,-6.29269 q 3.44247,0 5.66342,-1.22153 2.25797,-1.25854 3.33143,-3.29441 1.11048,-2.03587 1.11048,-4.44191 v -4.58996 q -0.40718,0.33314 -1.33257,0.62927 -0.88838,0.25911 -2.18394,0.51822 -1.29555,0.22209 -2.81321,0.4812 -1.51765,0.25912 -3.0353,0.4442 -2.14692,0.29612 -3.99771,0.99942 -1.85079,0.66629 -2.99829,1.88781 -1.11047,1.22153 -1.11047,3.22038 0,1.66572 0.88838,2.88724 0.88838,1.18451 2.55409,1.8508 1.66572,0.62927 3.92369,0.62927 z"
   id="text3"
   style="font-weight:500;font-size:75.8085px;font-family:Inter;letter-spacing:1.32292px"
   aria-label="Obsidiana" />
  </g></svg>
