<?xml version="1.0" encoding="UTF-8" standalone="no"?>
<!-- Created with Inkscape (http://www.inkscape.org/) -->

<svg
   width="128.43507mm"
   height="277.85947mm"
   viewBox="0 0 128.43507 277.85946"
   version="1.1"
   id="svg1"
   xml:space="preserve"
   xmlns="http://www.w3.org/2000/svg"
   xmlns:svg="http://www.w3.org/2000/svg"><defs
     id="defs1" /><g
     id="layer1"
     transform="translate(-41.898606,-10.295477)"><path
       id="path1"
       style="fill:#000000;stroke-width:1.34554"
       d="m 105.51544,10.310553 c -1.41454,0.149083 -2.7934,1.4293 -5.787241,4.912879 -4.723959,5.496729 -13.289723,16.946909 -15.27452,20.417875 -0.895728,1.566429 -2.500097,3.841746 -3.565157,5.056539 -1.186012,1.352751 -2.166301,2.900915 -2.529561,3.994588 -0.326213,0.982137 -1.613296,3.227039 -2.860291,4.988843 -3.003256,4.243122 -3.91669,5.863626 -4.627624,8.210351 -1.024368,3.381336 -1.902975,5.351244 -3.151229,7.064168 -1.834189,2.516978 -2.952242,4.97082 -3.770829,8.274948 -0.414358,1.672508 -1.236705,3.781459 -1.861902,4.775419 -2.160585,3.434968 -2.721119,4.646091 -3.129525,6.763928 -0.577595,2.995197 -1.359415,5.348764 -2.600875,7.83053 -1.685371,3.369175 -2.337885,5.634501 -2.92902,10.164239 -0.587282,4.50019 -0.977392,5.89839 -2.460832,8.82582 -1.327033,2.61877 -1.914399,5.27146 -2.300118,10.38231 -0.259029,3.43216 -0.596416,5.22363 -1.474328,7.83208 -0.906331,2.69288 -1.191564,4.25908 -1.399915,7.68687 -0.143921,2.3678 -0.35223,4.45196 -0.463021,4.63124 -0.742686,1.20168 -1.371139,6.50006 -1.354439,11.42152 0.01225,3.61077 -0.158303,6.17439 -0.50953,7.66414 -0.329875,1.39917 -0.529584,4.06878 -0.532784,7.11946 -0.0029,2.71901 -0.25854,6.48093 -0.577225,8.49302 -0.59074,3.72977 -0.547459,6.1831 0.197404,11.20552 0.358443,2.4169 0.337488,3.23902 -0.134359,5.27358 -0.685102,2.95414 -0.692693,5.38404 -0.02532,8.41809 0.27995,1.27273 0.515032,3.69874 0.521932,5.3914 0.01298,3.1946 0.87169,6.83185 1.986959,8.41396 0.314488,0.44612 1.961448,1.50902 3.659725,2.36213 6.123407,3.076 9.455443,6.38805 12.207524,12.13466 1.966883,4.10704 2.498146,6.4555 2.709395,11.97653 0.225333,5.88914 -0.233888,8.34303 -2.818432,15.05799 -2.118228,5.50341 -3.049987,9.45955 -3.360519,14.26942 -0.206525,3.19889 -0.152352,3.71936 0.522966,5.0431 0.41417,0.81185 1.223664,1.81164 1.799373,2.22157 1.07864,0.76806 12.798424,4.89468 16.591752,5.84202 1.174822,0.29339 3.177648,0.64048 4.450374,0.77153 1.272723,0.13107 3.595529,0.57302 5.161959,0.98237 2.022772,0.52861 4.137682,0.76685 7.298263,0.82165 2.447548,0.0424 5.811703,0.31861 7.47603,0.61392 4.1833,0.74227 6.03969,0.72065 10.91199,-0.12558 3.09408,-0.53744 4.83515,-0.66439 6.53242,-0.47697 2.98973,0.33013 3.76554,0.25683 7.83208,-0.74104 1.86014,-0.45646 4.92872,-1.00513 6.81922,-1.21905 1.8905,-0.21393 4.37355,-0.69884 5.51801,-1.07745 6.49636,-2.1491 13.16767,-4.74256 14.17485,-5.51077 1.63094,-1.24399 2.32569,-2.92391 2.31769,-5.6038 -0.0155,-4.96321 -1.00471,-9.46144 -3.42047,-15.5577 -3.39475,-8.56681 -3.8894,-16.18173 -1.51722,-23.34793 2.54011,-7.67348 6.5809,-12.49485 13.46585,-16.06724 5.28834,-2.74394 5.43828,-3.00407 5.7459,-9.94461 0.12149,-2.74125 0.4378,-6.14424 0.7028,-7.56181 0.38961,-2.08405 0.40021,-3.14391 0.0543,-5.53662 -0.55014,-3.80497 -0.52473,-5.92918 0.10594,-8.79636 0.66403,-3.01904 0.65609,-4.57734 -0.0429,-8.40827 -0.33997,-1.86322 -0.60949,-5.50109 -0.65629,-8.85786 -0.0473,-3.38961 -0.26747,-6.34493 -0.54415,-7.29826 -0.30657,-1.05646 -0.44431,-3.44054 -0.40411,-7.00112 0.052,-4.60203 -0.0727,-6.01825 -0.84543,-9.59218 -0.49862,-2.30617 -1.00436,-5.64396 -1.12344,-7.41712 -0.15329,-2.28295 -0.61827,-4.50172 -1.59319,-7.60212 -1.27986,-4.07021 -1.37666,-4.68048 -1.37666,-8.66769 v -4.28863 l -1.78645,-4.21938 c -1.36237,-3.21737 -1.91637,-5.09066 -2.33267,-7.88737 -0.89159,-5.989876 -1.53036,-8.24311 -3.33985,-11.786362 -1.19955,-2.348885 -2.00153,-4.58157 -2.6634,-7.411434 -0.79005,-3.377922 -1.2341,-4.492945 -2.67478,-6.720003 -1.3858,-2.142221 -1.87694,-3.338864 -2.48563,-6.052344 -0.63552,-2.83318 -1.06861,-3.848666 -2.66754,-6.257499 -2.52286,-3.800791 -3.23987,-5.258283 -3.93878,-8.004163 -0.4519,-1.77543 -1.33815,-3.416942 -3.92741,-7.276558 -1.99239,-2.969909 -3.59028,-5.775462 -3.95376,-6.942212 -0.44189,-1.41839 -1.17259,-2.564518 -2.651,-4.158403 -1.12249,-1.210166 -2.92288,-3.699545 -4.00131,-5.531962 -2.146,-3.646363 -10.48128,-14.641562 -15.32516,-20.21582 -2.44961,-2.818962 -3.35306,-3.612776 -4.5067,-3.958415 -0.54061,-0.161969 -1.01625,-0.237796 -1.48777,-0.188102 z m -6.11952,43.72498 h 13.42864 v 75.404697 l 8.42222,-10.96522 V 87.725466 h 12.87208 V 211.043 h -13.42812 v -73.89523 l -7.70754,10.72648 v 96.54088 h -12.95166 v -96.4613 L 90.973695,136.6708 v 74.34792 H 78.113498 l 0.0677,-123.293254 H 90.73495 v 30.670484 l 8.66097,11.28303 z" /></g></svg>
